# xmcd CD database file generated by OrangeCD 5.2
#
# Track frame offsets:
#	150
#	17434
#	33696
#	49195
#	65384
#	80335
#	99625
#	113205
#	129798
#	146402
#	162633
#	177132
#	193414
#	210621
#	228588
#	244994
#	261036
#	279228
#
# Disc length: 3947 seconds
#
# Revision: 2
# Processed by: cddbd v1.5PL3 Copyright (c) Steve Scherf et al.
# Submitted via: OrangeCD 5.2
#
DISCID=fe0f6912
DTITLE=The Deans - Almost Live... and Nearly Dangerous!!!
DYEAR=2003
DGENRE=Country
TTITLE0=Memories
TTITLE1=Billy B Bad
TTITLE2=I Knew The Bride
TTITLE3=Elvis Blessed My Soul
TTITLE4=Everyday
TTITLE5=Train Medley
TTITLE6=G. I. Blues
TTITLE7=That's Alright Mama
TTITLE8=Don't Be Cruel
TTITLE9=Suspicious Minds
TTITLE10=Need Your Lovin Tonight
TTITLE11=Land Of Enchantment
TTITLE12=Sweet Nothings
TTITLE13=Soutbound Train
TTITLE14=Waddaya Wanna Make Those Eyes At Me For
TTITLE15=Shake Your Tailfeather
TTITLE16=Mony Mony
TTITLE17=Wonder Of You
EXTD=
EXTT0=
EXTT1=
EXTT2=
EXTT3=
EXTT4=
EXTT5=
EXTT6=
EXTT7=
EXTT8=
EXTT9=
EXTT10=
EXTT11=
EXTT12=
EXTT13=
EXTT14=
EXTT15=
EXTT16=
EXTT17=
PLAYORDER=
